<svg width="1793" height="500" viewBox="0 0 1793 500" fill="none" xmlns="http://www.w3.org/2000/svg">
<path d="M1376.43 151.071C1366.37 151.071 1358.21 159.226 1358.21 169.286C1358.21 179.345 1366.37 187.5 1376.43 187.5C1386.49 187.5 1394.64 179.345 1394.64 169.286C1394.64 159.226 1386.49 151.071 1376.43 151.071Z" fill="#222222"/>
<path d="M1361.07 207.143C1359.49 207.143 1358.21 208.422 1358.21 210V351.071C1358.21 352.649 1359.49 353.928 1361.07 353.928H1391.79C1393.36 353.928 1394.64 352.649 1394.64 351.071V210C1394.64 208.422 1393.36 207.143 1391.79 207.143H1361.07Z" fill="#222222"/>
<path fill-rule="evenodd" clip-rule="evenodd" d="M1135.79 308.755C1136.43 306.935 1135.08 305.029 1133.15 305.029H1098.93C1098.01 305.029 1097.14 305.482 1096.62 306.24C1090.06 315.767 1079.7 321.824 1068.13 321.824C1052.11 321.824 1038.34 310.158 1033.92 293.832H1136.96C1138.39 293.832 1139.58 292.757 1139.74 291.337C1140.05 288.481 1140.21 285.577 1140.21 282.635C1140.21 241.025 1108.07 207.056 1068.13 207.056C1028.2 207.056 996.052 241.025 996.052 282.635C996.052 324.244 1028.2 358.214 1068.13 358.214C1099.26 358.214 1125.68 337.551 1135.79 308.755ZM1068.13 243.446C1081.76 243.446 1093.74 251.867 1099.75 264.44H1036.51C1042.53 251.867 1054.51 243.446 1068.13 243.446Z" fill="#222222"/>
<path fill-rule="evenodd" clip-rule="evenodd" d="M1528.93 207.143C1527.35 207.143 1526.07 208.422 1526.07 210V217.466C1515.38 210.904 1502.93 207.143 1489.64 207.143C1449.8 207.143 1417.5 240.961 1417.5 282.678C1417.5 324.396 1449.8 358.214 1489.64 358.214C1502.93 358.214 1515.38 354.452 1526.07 347.891V351.071C1526.07 352.649 1527.35 353.928 1528.93 353.928H1558.93C1560.51 353.928 1561.79 352.649 1561.79 351.071V282.72C1561.79 282.706 1561.79 282.692 1561.79 282.678C1561.79 282.664 1561.79 282.65 1561.79 282.636V210C1561.79 208.422 1560.51 207.143 1558.93 207.143H1528.93ZM1452.83 282.678C1452.83 261.08 1469.23 243.571 1489.45 243.571C1509.68 243.571 1526.07 261.08 1526.07 282.678C1526.07 304.277 1509.68 321.785 1489.45 321.785C1469.23 321.785 1452.83 304.277 1452.83 282.678Z" fill="#222222"/>
<path d="M517.857 351.158C517.857 352.736 519.136 354.015 520.714 354.015H551.39C552.968 354.015 554.247 352.736 554.247 351.158V287.573L572.633 269.187L642.954 352.993C643.497 353.64 644.298 354.014 645.143 354.014H685.187C687.614 354.014 688.936 351.179 687.376 349.32L598.463 243.358L685.872 155.949C687.672 154.149 686.397 151.071 683.851 151.071H640.469C639.712 151.071 638.985 151.372 638.449 151.908L554.247 236.11V153.928C554.247 152.35 552.968 151.071 551.39 151.071H520.714C519.136 151.071 517.857 152.35 517.857 153.928V351.158Z" fill="#222222"/>
<path d="M691.428 213.928C691.428 212.35 692.708 211.071 694.286 211.071H725C726.578 211.071 727.857 212.35 727.857 213.928V294.821C727.857 309.713 739.929 321.786 754.821 321.786C769.713 321.786 781.786 309.713 781.786 294.821V213.928C781.786 212.35 783.065 211.071 784.643 211.071H815.357C816.935 211.071 818.214 212.35 818.214 213.928V351.071C818.214 352.649 816.935 353.928 815.357 353.928H784.643C783.065 353.928 781.786 352.649 781.786 351.071V349.143C772.689 354.889 761.912 358.214 750.357 358.214C717.812 358.214 691.428 331.831 691.428 299.286V213.928Z" fill="#222222"/>
<path fill-rule="evenodd" clip-rule="evenodd" d="M843.571 151.071C841.994 151.071 840.714 152.35 840.714 153.928V351.071C840.714 352.649 841.994 353.928 843.571 353.928H874.286C875.864 353.928 877.143 352.649 877.143 351.071V346.602C887.998 353.958 900.858 358.214 914.643 358.214C953.5 358.214 985 324.396 985 282.678C985 240.961 953.5 207.143 914.643 207.143C900.858 207.143 887.998 211.399 877.143 218.755V153.928C877.143 152.35 875.864 151.071 874.286 151.071H843.571ZM877.143 282.678C877.143 304.277 893.133 321.786 912.857 321.786C932.582 321.786 948.572 304.277 948.572 282.678C948.572 261.08 932.582 243.571 912.857 243.571C893.133 243.571 877.143 261.08 877.143 282.678Z" fill="#222222"/>
<path fill-rule="evenodd" clip-rule="evenodd" d="M1646.43 207.143C1607.57 207.143 1576.07 240.961 1576.07 282.678C1576.07 324.396 1607.57 358.214 1646.43 358.214C1660.32 358.214 1673.28 353.89 1684.18 346.428H1684.42L1683.79 357.678C1683.79 372.891 1665.6 385.952 1649.58 385.952C1638.01 385.952 1627.65 379.899 1621.09 370.377C1620.57 369.619 1619.71 369.166 1618.79 369.166H1584.56C1582.63 369.166 1581.28 371.072 1581.92 372.891C1592.04 401.67 1618.45 422.321 1649.58 422.321C1685.87 422.321 1720.52 394.643 1720.52 355.178V346.428L1720.36 346.425V214.285C1720.36 212.707 1719.08 211.428 1717.5 211.428H1686.79C1685.21 211.428 1683.93 212.707 1683.93 214.285V218.755C1673.07 211.399 1660.21 207.143 1646.43 207.143ZM1648.21 321.785C1667.93 321.785 1683.91 304.295 1683.93 282.713V282.644C1683.91 261.061 1667.93 243.571 1648.21 243.571C1628.49 243.571 1612.5 261.08 1612.5 282.678C1612.5 304.277 1628.49 321.785 1648.21 321.785Z" fill="#222222"/>
<path fill-rule="evenodd" clip-rule="evenodd" d="M1197.5 187.5V317.5H1238.93C1272.07 317.5 1298.93 290.637 1298.93 257.5V247.5C1298.93 214.363 1272.07 187.5 1238.93 187.5H1197.5ZM1163.93 151.071C1162.35 151.071 1161.07 152.35 1161.07 153.928V351.071C1161.07 352.649 1162.35 353.928 1163.93 353.928H1238.93C1292.18 353.928 1335.36 310.756 1335.36 257.5V247.5C1335.36 194.244 1292.18 151.071 1238.93 151.071H1163.93Z" fill="#222222"/>
<path d="M294.643 71.4287C299.574 71.4287 303.571 75.4262 303.571 80.3573V214.643C303.571 263.954 263.597 303.929 214.286 303.929H80.357C75.4259 303.929 71.4285 299.931 71.4285 295V232.5C71.4285 212.776 87.4183 196.786 107.143 196.786H160.714C180.439 196.786 196.428 180.796 196.428 161.072V107.143C196.428 87.4185 212.418 71.4287 232.143 71.4287H294.643Z" fill="#E54545"/>
<path d="M216.786 327.857H196.428L196.428 419.643C196.428 424.574 200.426 428.572 205.357 428.572H267.857C287.581 428.572 303.571 412.582 303.571 392.857V338.929C303.571 319.204 319.561 303.214 339.286 303.214H392.857C412.582 303.214 428.571 287.225 428.571 267.5V205C428.571 200.069 424.574 196.072 419.643 196.072L327.5 196.072V217.143C327.5 278.289 277.931 327.857 216.786 327.857Z" fill="#E54545"/>
</svg>
