<svg width="500" height="500" viewBox="0 0 500 500" fill="none" xmlns="http://www.w3.org/2000/svg">
<path d="M294.643 71.4287C299.574 71.4287 303.571 75.4262 303.571 80.3573V214.643C303.571 263.954 263.597 303.929 214.286 303.929H80.3572C75.4261 303.929 71.4286 299.931 71.4286 295V232.5C71.4286 212.776 87.4184 196.786 107.143 196.786H160.714C180.439 196.786 196.429 180.796 196.429 161.072V107.143C196.429 87.4185 212.418 71.4287 232.143 71.4287H294.643Z" fill="#E54545"/>
<path d="M216.786 327.857H196.429L196.429 419.643C196.429 424.574 200.426 428.572 205.357 428.572H267.857C287.582 428.572 303.571 412.582 303.571 392.857V338.929C303.571 319.204 319.561 303.214 339.286 303.214H392.857C412.582 303.214 428.571 287.225 428.571 267.5V205C428.571 200.069 424.574 196.072 419.643 196.072L327.5 196.072V217.143C327.5 278.289 277.932 327.857 216.786 327.857Z" fill="#E54545"/>
</svg>
